<svg xmlns="http://www.w3.org/2000/svg" viewBox="0 0 182.8 160.47"><defs><style>.cls-1{fill:#005da4;}.cls-2{fill:#767476;}</style></defs><g id="Calque_2" data-name="Calque 2"><g id="autre_police_CG_bold" data-name="autre police CG bold"><g id="logo_UO" data-name="logo UO"><path class="cls-1" d="M155.59,59.77c.49-.85-3.4-2.68-3.4-2.68-1,.13-2.06-1.69-2.06-1.69-5.95-5.72-11.78-4.74-11.78-4.74-1.1.73-3.28.36-3.28.36-18,1.34-28.91,8.26-28.91,8.26-.12.85-6.68,2.79-6.68,2.79-.85,0-1.33,1.34-1.33,1.34-.49,0-1.46,2.19-1.46,2.19-1,1.58.12,1.58.12,1.58s.25-.37.37.12a9,9,0,0,1-.25,2.18c-1.09.61.85.61.85.61-.72,1,6.8.73,6.8.73-.48.85,1.46,1,1.46,1l4.74-.12a34.88,34.88,0,0,1,4.26-.62s.92-.32,1-.23.59-.36.82-.18a6,6,0,0,1,1.59,0l1.33,0-.19-.37a12.7,12.7,0,0,0-2.32,0,3.65,3.65,0,0,1-1,.27,5.37,5.37,0,0,1-1.09.23h-.64l-.45,0s-1.68.14-.32-.5l-.41-.36s.68-1.74,1.63-1.65c.15.15.73.75.42.87l.41-.13-1,.64a18.47,18.47,0,0,1,2.28-.51s1.32-.86,1.68-.68a1.92,1.92,0,0,0,1,0,2.87,2.87,0,0,1,1.32-.63s.5.32.23.5c0,0,.91-.69,1.18-.64,0,0,2.78-.36,2.87-.82,0,0,.6-.77,1-.64a.94.94,0,0,1-.14.87s1.23.14,1,.41l-.09.23s1.82-.37,2-.1a4.76,4.76,0,0,1-1.5.82l.68.23h6.73l-.12.61,5,.36.12-1,2.91.12v.49l2.55.36.25.49.6-.12.49.61,1.7-.24-.12-.86a9.32,9.32,0,0,0-1.82-.36c-.61,0,.12-.49.12-.49l-2.07-.12-.24-.61-1.09-.12-.73-.24.24-.36-2.06-.25c-.25-1.33,1.7-1.33,1.7-1.33-.13-1.22,2.43-1.34,2.43-1.34.36-1.21,3,0,3,0a2,2,0,0,0,1.33-.49.75.75,0,0,1-.72-1c0-.61,3.88,0,3.88,0-1-.73.37-.85.37-.85a1.83,1.83,0,0,0,1.46-1.09c-.61.24-1-1.09-1-1.09C153.28,59.16,155.59,59.77,155.59,59.77ZM118,67.68l-1.23.13,0-.41-1,0,.69-.27h1.68l-.27.36Zm6.87-1.6-.37-.24.85-.36Z"/><path class="cls-1" d="M125.61,68.59a2.75,2.75,0,0,0-1.14.27s-.59.69-1,.45-.14.1-.14.1H122.2s-.28.54.45.5c0,0,2.23-.87,2.69-.64,0,0,.27-.62,1.8-.54l.52-.33S125.75,68.36,125.61,68.59Z"/><polygon class="cls-2" points="130.94 49.23 130.94 33.66 128.63 34.93 128.66 49.05 130.94 49.23"/><polygon class="cls-2" points="130.88 70.46 130.88 85.73 128.57 85.73 128.57 70.91 130.88 70.46"/><polygon class="cls-2" points="122.62 50.14 122.62 37.12 124.93 36.12 124.93 49.69 122.62 50.14"/><polygon class="cls-2" points="124.93 71.55 124.93 85.69 122.62 85.69 122.62 71.73 124.93 71.55"/><polygon class="cls-2" points="119.1 72.28 119.1 85.69 116.79 85.69 116.79 72.46 119.1 72.28"/><polygon class="cls-2" points="116.79 51.96 116.79 40.3 119.1 38.85 119.1 51.51 116.79 51.96"/><polygon class="cls-2" points="113.1 85.73 110.8 85.73 110.72 72.73 113.08 72.91 113.1 85.73"/><polyline class="cls-2" points="110.8 43.22 110.8 54.61 113.08 53.51 113 42.49 110.8 43.22"/><polygon class="cls-2" points="104.52 72.73 104.58 85.73 106.89 85.73 106.89 73 104.52 72.73"/><polygon class="cls-2" points="98.68 72.18 98.68 85.68 100.99 85.68 100.97 72.64 98.68 72.18"/><polyline class="cls-2" points="98.68 59.8 98.68 51.14 98.68 59.8 101.06 59.16 100.97 49.14 98.68 51.14"/><polyline class="cls-2" points="92.67 54.79 92.67 85.68 94.98 85.68 94.98 53.42"/><polyline class="cls-2" points="86.75 58.98 86.75 85.68 89.05 85.68 89.05 57.06"/><polyline class="cls-2" points="80.74 63.99 80.74 85.68 83.04 85.68 83.04 61.62"/><polyline class="cls-2" points="74.54 69.91 74.54 85.68 76.85 85.68 76.85 67.18"/><polyline class="cls-2" points="68.71 74.37 68.71 85.59 71.02 85.59 71.02 72.64"/><polyline class="cls-2" points="62.61 79.02 62.61 85.68 64.92 85.68 64.92 77.83"/><polyline class="cls-2" points="56.87 82.48 56.87 85.59 59.18 85.59 59.18 81.29"/><polyline class="cls-2" points="104.7 57.88 107.07 56.61 107.07 45.77 104.7 47.23 104.72 57.52"/><path class="cls-1" d="M163.45,21.86l.82-.09h.59l2.28.23.91.36.68.18,1,.05.55-.05.31.09.23.05,1.09.14.87-.09.09.55,1,.08,1.09-.22s4.37,1.45,5.37,1.72l.41-.68.82,0-4.18-2,.31-.46-1.05-.54.64-.69-1.36-.18.18-.45-.59-.14-.46-.18.73-.37L173.56,19l.23-.59-1.64-.1-.05-.5.55-.41.27-.64-1.73.19.18-.64,1-.5.09-.5-.68.36-.82.41h-1.78l-.22-.59h-.55l-1.37-.18V14.8l.46-.27.18-.5-2.09-.14,0-.32-.59,0,.31-.41h-.86l-1.64-.05-.09-.5-1.41-.18.36-.59.91-.32,0-.41-2.78-.05.55-.86-.5-.19,2.78.23-.1.46,1.23-1.05.05.5.77.14-.18.18.59-.09-.23.5,2.65.09v.68l.54.37-.05.82.82.22.51-2,.41.45.95.37,0,.5.91,0-.23.64-.73.55.59.27,1.33-1.37,1.09-.09-.23.78h.91l0,.68,3.68,0,0,.46,1.5.14-.09.73,1.19.09.27.45,2,1-.68-1.37-.32-.55-.27.14-.69-.91-2-.27-.08-.37-.69-.09-.18-.68-.86,0,.1-.16-.69-.53,0-.27h-1.37l.23-.29a6.6,6.6,0,0,0-1.41-.44c-.37,0,.07-.23.07-.23l-1.8-.5-.32-.59-1.37-.14.58-.35-1.26-.33-.37-.23-.18-.13.05-.28L167.87,8l.08-.59-.36-.09.23-.6-1.23,0L165.54,6l-3.14-.1.18-.41L162,5.24l-3-.14.1-.73-3.15,0,.19-.41-3.87-.37-.6-.59H138.13l6.14-1,2.37-.18,1-.09,1.78.41a1.32,1.32,0,0,1,.09-.68,4.71,4.71,0,0,0,0-1.33S148.05.5,148.1.05l-1.6.77-2.13.41L140.59.82,139.9,0l-1,.59-.36.87-.6-.14,0-1.19-1.09.6-.87.27a37.74,37.74,0,0,0-5.15.46s-7,.72-8.79,1.41c0,0-14.8,5.06-19.76,8.11,0,0-22.91,12.84-26.15,14.7,0,0-9,8.84-9.79,4.79a2,2,0,0,1,1-1.28l-.78.09s.32-.68.73-.77l-1.09.27s.68-.73.82-.73l-.46.14s.14-1.87.46-2l.09-.37s-.87-.09-.91.23c0,0,.18-1.69,1-2,0,0-.45-1,.19-1.59,0,0-1,.95-1.28.95,0,0-1.37.32-.86-.27,0,0-1.42,1.09-.78-.32,0,0-2,1.28-1.55-.18,0,0-13.07,10.84-13,8.75,0,0-7.52,9.06-6.65,4.64,0,0-3.15,1.59-2.23-.18,0,0-1.73,2-1.37-.64a1.76,1.76,0,0,1-.09-1.55s-2.46,2.51-2,.73c0,0-1.27,0-.77-.77,0,0-1.32,1.23-1.51.41,0,0-1-1.19,3.87-6.24,0,0-6.23,4.05-6,2.32a1.67,1.67,0,0,1,.46-1.41s-6.88,5.78-8.15,6.92c0,0-11.16,10.34-12.75,12.16s-1.69,2-1.69,2-4.46,4.87-4.92,6.1c0,0-2.37-.36-2.55,1.82,0,0-.73.55-.36,4,0,0-2.55,3.28-2,4.56l1.28-1.1s.36-1.82.73-1.09c0,0,2.55-4,2.55-2.92a4,4,0,0,0,1.64.37s.36-.19.18,1.82c0,0,.67.3.06,1,0,0-.12.55-.79-.24,0,0,.06,2.31,1,2.43,0,0-1.58,2.43-2.49,2.61l.24.24-.18.25-.06.3-.18.24.06.55-.36.12-.55.36.36.25s.49,2.61,0,2.85l.13.18-.19.67.49.06.18-.06s.61,1.09.18,1.34l.43.12s.3.36.24.61l.49.3s.36-.67.48-1c0,0,.67-.61.67-.24,0,0,.79-1,1.09-1l1.16-1.7h.3l-.24.91.36.25L9.45,77l.18.25,1-.61.3.06-.61.85s1-.91,1.22-.73.36.06.36.06l-.36.49s4.92-2.13,5.71-1.89c0,0,5.64-1.21,5.83-1.52s-.06.19-.06.19l3.21-1.28-.48.91.91-.06-1,.67s1.64.49,1.45.85l7.11-1.28v1h.24l-.24.48.18.31S33,79.68,33.14,81l.48.91.24.67.61.12.37.61s1.51.36,1.33.73c0,0,1,1.15.91,1.39,0,0,1.64,1.46,1.34,1.89,0,0,5.4-.49,5.71.3,0,0,3.88-1.52,4.49-1.58a5.94,5.94,0,0,0,1.15-.24l.12-.31,1.1.12.48-.12.31-.67,1.33-.36v.31l.24-.31h.19l.18.43L55,84.12s4.8-1.52,4.86-2.37.67-.67.67-.67l.79-.49.61-.6.3-.42h.61l3.09-2.5a17.49,17.49,0,0,1,2.31-2.49,13.74,13.74,0,0,0,2.19-1.88s1.27-1.94,1.58-2,3.64-2,3.64-2a7.84,7.84,0,0,1,1.46-1.77,11.1,11.1,0,0,1,1.21-.48l.61-.61s5.22-4.61,6.13-5.22,11-6.86,11.18-7.29,6.92-4.8,7.22-4.8a17.24,17.24,0,0,0,3.46-2.91,42.83,42.83,0,0,1,6-3.34,21.05,21.05,0,0,0,2.25-1l1.7-1.7c.3-.31,2.92-2.43,2.92-2.43v.73l.42.06.24-.06-.3-.31.61-.48,1.15.12.43-.67.48-.55H123l.37-.36.24-.43.61.06.24-.24.18-.3h.61l1-1,.73.06.25-.25.12-.48.85-.24.48.12,1.28-.19.12-.48.36-.12.19-.06.24-.55.3.06.31-.36.3-.43.18.43.55.12.12-.43.73-.12.42-.36.31.12.18-.3.24-.19.85-.18,1.34-.36.3.36.61-.79.3-.06.31-.55.24.67,1.28.18.42-.6.85-.25.67-.66.85-.19.24-.42,1-.37-.12,1,.67-.13.24-.73.43-.06.24.79,1.15-.06.73.06.37-.54.42-.67.55.24.91-.36,1.22-.19.66.79.49-.66.33.44.28-.23s3.23-.18,3.73-.14a3.64,3.64,0,0,1,1,.28l.91-.19.23-.22a.89.89,0,0,0,.32.09c.13,0,2,0,2.78,0s1.78,0,1.78,0l.9,0s-.13,0,.55-.09a2.48,2.48,0,0,1,1.32.13s.09.19.32,0,.32-.18.32-.18l.77.23,1.14-.14.36,0,.19.5.91-.18.59.5,2.28-.1s2.42.35,3.31.62a8.34,8.34,0,0,0-3-.93c-.72-.13-1.1-.21-1.3-.26,0,0,0,.05-.11.07a6.21,6.21,0,0,1-1.18-.13s-1.91-.09,1.68-.73l1.64.23.32-.14.64.27.18.09.73.14.5.09.23.05s.5,0,.59.13a2.37,2.37,0,0,1,.18.41l.27,0,.55,0a31.5,31.5,0,0,1,3.55.91l-.09-.59-.27.09-.59-.13-.55-.37-.73.05-.09-.23h-.28l-.36-.36-.36,0-.32-.27-.32-.28-1.09,0v-.32l-.32.09,0-.41-.42.14L175,25l-1.14-.41-.36-.41h-.91l-1.32-.13.09-.23-.6-.14-.09-.18L168,23.36l-1-.59-1.65.18-.45-.22-.37-.05h-.72l-1,.09L162.4,22l-1,.09-2-.18-.32.31-.18.28-.82.09-.55-.23-.22.23-.87-.05-.27-.09-.05-.23L156,22h-.54l-.73,0-1.09-.18,1-.64.36-.59.55.14.18.18.69.27,2.86,0-.13-.46h.32l.09.36,1.5.19.46-.09h.86l.82.27-.18.32Zm4.55-5.6.14.41-.87.41-2-.37Zm-39.85-14,.41.18-1.18,1.37-.28-.23Zm-1,23.77.37-.36.13.64,1.32-.55-1.91,1.55.41-.68a12.71,12.71,0,0,0-1.23.54C126.06,27.28,126.65,26.32,127.15,26Zm2.73,1.78-.32.59-.41.18-.63.1,0,.27.46.27c0,.55-.73.69-.73.69v-.64l-.23,0-.36.64a1,1,0,0,1-1.32.59l.18-.36.36-.32.75-.45a2.78,2.78,0,0,1-.88-.23l-.09-.55s-.19-.18-.28.23a.59.59,0,0,1-.5.45,1.29,1.29,0,0,1-.41.23c-.18,0-.09.28-.09.28l-1.19,1.09-2,.59-.64.77.14.51c-.5,1.09-4.51,2.77-4.78,3-3,1.18-2.19,1.73-2.19,1.73-.83,0-2.38,1.18-2.88,1.59l0,0c-.55.92-2.37,1.1-2.37,1.1a7.34,7.34,0,0,0,1.32-1.41,3.8,3.8,0,0,1-1.37.72c-1.59.05-1.27-.63-1.27-.63,1.09-.18,1.46-1.46,1.46-1.46a10,10,0,0,0,2.14-1.27c.31-.6,3.23-2.24,3.41-2.33a25.6,25.6,0,0,0,4-2.18c.23-.23,3-1.14,3.23-1.28a23.66,23.66,0,0,1,3.24-1.59c.68-.37,3.32-1.64,3.32-1.64l1.05-.05Zm4.33-25.51L133,2.69s.09-.55.23-.55a11.71,11.71,0,0,0,1.22-.5Zm1.23,24-1,.5-.18-.55,1.32-.5Zm8.65-1c-.18,0,.36-.78.69-1.23l3.73-.14.14.36S144.27,25.23,144.09,25.28Zm6.42-3.65-2.41.28v-.78s2.41.09,2.55.14S150.51,21.63,150.51,21.63Zm1.69-12-1.32.72-.32-.41,1.64-.45Zm3.28,13.7.82-.08v.58l-1.51.28-.31-.46S155.25,23.45,155.48,23.36Z"/><polygon class="cls-1" points="150.94 0.68 150.57 0.5 150.27 1.05 150.88 1.05 150.94 0.68"/><polygon class="cls-1" points="150.21 1.47 150.03 1.59 149.85 1.96 150.27 1.83 150.21 1.47"/><path class="cls-2" d="M0,95.58H5v17a8.66,8.66,0,0,0,.39,3.11,3.09,3.09,0,0,0,1.27,1.46,4,4,0,0,0,2.13.54,4.21,4.21,0,0,0,2.28-.6,3.17,3.17,0,0,0,1.32-1.55,11.25,11.25,0,0,0,.37-3.58V95.58h5v15.68a22.54,22.54,0,0,1-.45,5.5,7.63,7.63,0,0,1-1.7,3,8,8,0,0,1-2.91,2.12,9.79,9.79,0,0,1-3.82.69,9.21,9.21,0,0,1-5-1.32,7.62,7.62,0,0,1-3-3.29C.3,116.62,0,114.39,0,111.26Z"/><path class="cls-2" d="M24.94,102.43h4.88v2a11.65,11.65,0,0,1,3-1.94,7.19,7.19,0,0,1,2.76-.55,6.65,6.65,0,0,1,4.9,2,6.92,6.92,0,0,1,1.7,5.07v12.85H37.36v-8.51a21.41,21.41,0,0,0-.31-4.62A3.17,3.17,0,0,0,36,107a3.06,3.06,0,0,0-1.91-.59,3.57,3.57,0,0,0-2.54,1A5.23,5.23,0,0,0,30,110.13a21.17,21.17,0,0,0-.22,3.94v7.8H24.94Z"/><path class="cls-2" d="M50.68,94.42a3,3,0,0,1,2.2.93,3.2,3.2,0,0,1,0,4.48,3,3,0,0,1-2.18.92,3,3,0,0,1-2.22-.94,3.14,3.14,0,0,1-.91-2.28,3.11,3.11,0,0,1,3.1-3.11Zm-2.44,8h4.88v19.44H48.24Z"/><path class="cls-2" d="M57.33,102.43h5l4.91,11.47,4.9-11.47h4.95l-8.28,19.44H65.63Z"/><path class="cls-2" d="M101.27,113.56H85.59a5.18,5.18,0,0,0,1.82,3.3,5.65,5.65,0,0,0,3.76,1.23,6.49,6.49,0,0,0,4.7-1.92L100,118.1a9.72,9.72,0,0,1-3.68,3.23,11.49,11.49,0,0,1-5.1,1,10.08,10.08,0,0,1-7.45-2.89,9.84,9.84,0,0,1-2.88-7.23,10.16,10.16,0,0,1,2.87-7.39,9.63,9.63,0,0,1,7.2-2.94,10,10,0,0,1,7.47,2.94,10.65,10.65,0,0,1,2.87,7.76Zm-4.88-3.84a4.94,4.94,0,0,0-1.91-2.64,5.52,5.52,0,0,0-3.3-1,5.84,5.84,0,0,0-3.58,1.14,6.28,6.28,0,0,0-1.79,2.52Z"/><path class="cls-2" d="M105.94,102.43h4.18v2.45a5.19,5.19,0,0,1,1.81-2.2,4.34,4.34,0,0,1,2.46-.75,4.64,4.64,0,0,1,2,.5l-1.52,4.2a3.32,3.32,0,0,0-1.41-.43,2.24,2.24,0,0,0-1.91,1.39c-.52.93-.78,2.76-.78,5.47l0,1v7.86h-4.84Z"/><path class="cls-2" d="M132.56,105.15l-3,3a5.11,5.11,0,0,0-3.34-1.83,2.13,2.13,0,0,0-1.29.35,1,1,0,0,0-.17,1.59,5.49,5.49,0,0,0,1.46.9l1.79.9a10.55,10.55,0,0,1,3.87,2.84,5.9,5.9,0,0,1-.85,7.72,7.25,7.25,0,0,1-5.1,1.74,8.11,8.11,0,0,1-6.79-3.33l3-3.27a6.84,6.84,0,0,0,2,1.62,4.45,4.45,0,0,0,2.05.61,2.42,2.42,0,0,0,1.55-.46,1.33,1.33,0,0,0,.59-1.07c0-.75-.7-1.49-2.12-2.2l-1.65-.82c-3.14-1.59-4.72-3.57-4.72-6a5.19,5.19,0,0,1,1.78-3.94,6.46,6.46,0,0,1,4.55-1.63,8,8,0,0,1,3.57.83A7.81,7.81,0,0,1,132.56,105.15Z"/><path class="cls-2" d="M140.53,94.42a3,3,0,0,1,2.2.93,3.09,3.09,0,0,1,.92,2.25,3.06,3.06,0,0,1-.91,2.23,3.06,3.06,0,0,1-4.39,0,3.15,3.15,0,0,1-.92-2.28,3,3,0,0,1,.91-2.2A3,3,0,0,1,140.53,94.42Zm-2.44,8H143v19.44h-4.88Z"/><path class="cls-2" d="M149.86,95.26h4.88v7.17h2.89v4.2h-2.89v15.24h-4.88V106.63h-2.5v-4.2h2.5Z"/><path class="cls-2" d="M181.59,113.56H165.92a5.17,5.17,0,0,0,1.81,3.3,5.67,5.67,0,0,0,3.76,1.23,6.52,6.52,0,0,0,4.71-1.92l4.11,1.93a9.74,9.74,0,0,1-3.69,3.23,11.44,11.44,0,0,1-5.09,1,10.08,10.08,0,0,1-7.45-2.89,9.84,9.84,0,0,1-2.88-7.23,10.16,10.16,0,0,1,2.87-7.39,9.63,9.63,0,0,1,7.19-2.94,10,10,0,0,1,7.47,2.94,10.62,10.62,0,0,1,2.88,7.76Zm-4.88-3.84a4.87,4.87,0,0,0-1.9-2.64,5.53,5.53,0,0,0-3.31-1,5.86,5.86,0,0,0-3.58,1.14,6.48,6.48,0,0,0-1.79,2.52Zm-4.55-17.85h5.77l-6.54,7h-3.51Z"/><path class="cls-1" d="M14.68,134.24h4.63v25.61H14.68v-2A9.17,9.17,0,0,1,12,159.75a7.62,7.62,0,0,1-3,.57,8.18,8.18,0,0,1-6.19-2.78,9.68,9.68,0,0,1-2.61-6.9,9.93,9.93,0,0,1,2.52-7,8.06,8.06,0,0,1,6.14-2.73,7.93,7.93,0,0,1,3.12.62,8.6,8.6,0,0,1,2.7,1.89ZM9.81,145.18a4.66,4.66,0,0,0-3.57,1.51,6.06,6.06,0,0,0,0,7.84,4.7,4.7,0,0,0,3.56,1.55,4.76,4.76,0,0,0,3.62-1.52,5.57,5.57,0,0,0,1.44-4,5.4,5.4,0,0,0-1.44-3.9A4.8,4.8,0,0,0,9.81,145.18Z"/><path class="cls-1" d="M24.29,134.24h4.28v2.34a12.19,12.19,0,0,1-.55,3.85,12,12,0,0,1-1.86,3.32l-1.67-1.3a10.28,10.28,0,0,0,.93-1.59A11.3,11.3,0,0,0,26,139.1H24.29Z"/><path class="cls-1" d="M46,134.24a12.41,12.41,0,0,1,9.12,3.84A12.77,12.77,0,0,1,59,147.43a12.64,12.64,0,0,1-3.76,9.26,12.4,12.4,0,0,1-9.13,3.78,12.4,12.4,0,0,1-9.35-3.88A13.13,13.13,0,0,1,46,134.24ZM46,138.89a7.88,7.88,0,0,0-5.83,2.41,8.42,8.42,0,0,0-2.36,6.13,8,8,0,0,0,3,6.56,8.19,8.19,0,0,0,5.31,1.88,7.75,7.75,0,0,0,5.76-2.44,8.81,8.81,0,0,0,0-12.07A7.84,7.84,0,0,0,46,138.89Z"/><path class="cls-1" d="M63.77,134.87h5a16.5,16.5,0,0,1,5.9.74,6,6,0,0,1,2.82,2.45,7.54,7.54,0,0,1,1.07,4.06,6.91,6.91,0,0,1-1.18,4.12,7.14,7.14,0,0,1-3.56,2.5l5.92,11.11h-5.2L69,149.27h-.44v10.58H63.77Zm4.75,9.76H70a5.89,5.89,0,0,0,3.12-.59,2.25,2.25,0,0,0,.86-2,2.41,2.41,0,0,0-.42-1.42,2.3,2.3,0,0,0-1.14-.87,8.4,8.4,0,0,0-2.61-.27h-1.3Z"/><path class="cls-1" d="M83.62,134.87h4.75v20.44H95.3v4.54H83.62Z"/><path class="cls-1" d="M98.93,134.87h13.64v4.65h-8.92V144h8.92v4.57h-8.92v6.57h8.92v4.67H98.93Zm7.66-8.59h5.48l-6.21,6.65h-3.33Z"/><path class="cls-1" d="M124.62,134.87h4.82l9.61,25h-4.94l-2-5.15H122l-2,5.15H115Zm2.44,6.62-3.35,8.58h6.68Z"/><path class="cls-1" d="M142.74,134.87h4.56L158,151.3V134.87h4.75v25h-4.57l-10.68-16.39v16.39h-4.75Z"/><path class="cls-1" d="M181.55,138.26,178,141.37q-1.84-2.58-3.77-2.58a2.29,2.29,0,0,0-1.53.5,1.46,1.46,0,0,0-.6,1.13,1.89,1.89,0,0,0,.43,1.19,30.9,30.9,0,0,0,3.48,3.21c1.82,1.52,2.92,2.47,3.3,2.87a9.7,9.7,0,0,1,2,2.79,7,7,0,0,1,.61,2.91,6.68,6.68,0,0,1-2.13,5.08,7.71,7.71,0,0,1-5.54,2,8.25,8.25,0,0,1-4.65-1.3,10.37,10.37,0,0,1-3.39-4.11l4-2.41c1.2,2.2,2.58,3.31,4.15,3.31a3,3,0,0,0,2.05-.72,2.1,2.1,0,0,0,.84-1.64,2.85,2.85,0,0,0-.63-1.7,18.26,18.26,0,0,0-2.78-2.6,28.06,28.06,0,0,1-5.27-5.14,6.51,6.51,0,0,1-1.19-3.6,5.9,5.9,0,0,1,2-4.46,6.87,6.87,0,0,1,4.89-1.86,7.67,7.67,0,0,1,3.56.87A12.84,12.84,0,0,1,181.55,138.26Z"/></g></g></g></svg>